<?xml version="1.0" standalone="no"?>
<!DOCTYPE svg PUBLIC "-//W3C//DTD SVG 20010904//EN"
 "http://www.w3.org/TR/2001/REC-SVG-20010904/DTD/svg10.dtd">
<svg version="1.0" xmlns="http://www.w3.org/2000/svg"
 width="220.000000pt" height="247.000000pt" viewBox="0 0 220.000000 247.000000"
 preserveAspectRatio="xMidYMid meet">

<g transform="translate(0.000000,247.000000) scale(0.100000,-0.100000)"
fill="#000000" stroke="none">
<path d="M0 1235 l0 -1235 1100 0 1100 0 0 1235 0 1235 -1100 0 -1100 0 0
-1235z m1234 1006 c69 -31 110 -74 132 -136 25 -74 -12 -229 -84 -356 -45 -80
-156 -239 -166 -239 -13 0 -115 156 -161 248 -62 123 -76 162 -82 242 -10 133
28 198 143 245 80 33 139 32 218 -4z m-557 -217 c54 -32 112 -109 151 -201 29
-69 75 -248 88 -347 9 -60 16 -59 -191 -10 -160 38 -273 90 -347 162 -82 79
-98 168 -47 267 72 139 228 198 346 129z m1101 -14 c73 -38 119 -94 146 -174
21 -66 20 -86 -8 -149 -44 -100 -171 -176 -377 -226 -97 -23 -220 -44 -226
-38 -7 7 17 138 43 237 51 193 153 346 249 373 37 10 135 -2 173 -23z m-1353
-534 c66 -23 167 -72 222 -108 119 -77 183 -124 180 -133 -5 -17 -188 -134
-272 -174 -102 -49 -179 -71 -249 -71 -126 0 -210 81 -231 221 -14 97 50 229
129 264 41 18 171 18 221 1z m1583 -21 c50 -21 79 -51 109 -109 51 -100 37
-223 -34 -306 -47 -55 -91 -72 -180 -71 -75 1 -85 4 -191 52 -35 16 -65 29
-68 29 -15 0 -253 166 -251 175 2 6 45 39 97 73 218 147 406 203 518 157z
m-855 -104 c14 -6 37 -22 51 -38 75 -81 17 -207 -95 -207 -53 0 -87 23 -115
76 -19 36 -18 62 5 107 30 58 95 84 154 62z m-248 -363 c-14 -104 -63 -276
-103 -359 -71 -147 -163 -218 -265 -205 -94 13 -177 72 -224 159 -12 22 -17
55 -18 109 0 69 3 80 30 119 52 74 178 145 319 180 65 16 168 38 201 42 71 9
68 12 60 -45z m505 28 c346 -76 510 -184 510 -337 0 -90 -72 -199 -162 -245
-66 -33 -155 -33 -212 0 -103 60 -183 226 -226 469 -11 63 -20 118 -20 121 0
10 42 7 110 -8z m-234 -159 c190 -286 227 -505 101 -601 -44 -34 -131 -66
-177 -66 -61 0 -159 41 -197 82 -74 79 -71 215 10 386 47 100 176 292 196 292
3 0 34 -42 67 -93z"/>
</g>
</svg>
