<?xml version="1.0" standalone="no"?>
<!DOCTYPE svg PUBLIC "-//W3C//DTD SVG 20010904//EN"
 "http://www.w3.org/TR/2001/REC-SVG-20010904/DTD/svg10.dtd">
<svg version="1.0" xmlns="http://www.w3.org/2000/svg"
 width="64.000000pt" height="64.000000pt" viewBox="0 0 64.000000 64.000000"
 preserveAspectRatio="xMidYMid meet">

<g transform="translate(0.000000,64.000000) scale(0.100000,-0.100000)"
fill="#000000" stroke="none">
<path d="M195 530 c-14 -15 -17 -31 -13 -77 5 -57 4 -59 -33 -95 -80 -78 -60
-191 44 -245 41 -21 159 -29 214 -14 75 21 133 86 133 151 0 44 -27 96 -61
121 -27 19 -28 22 -22 80 5 49 3 63 -12 79 -46 51 -115 -1 -115 -86 0 -13 -4
-24 -10 -24 -5 0 -10 11 -10 24 0 85 -69 137 -115 86z m75 -15 c7 -9 15 -38
18 -65 4 -44 7 -50 28 -50 23 0 28 8 38 71 8 44 26 62 58 57 20 -3 23 -10 26
-50 2 -26 -2 -57 -9 -69 -9 -18 -8 -24 7 -32 11 -6 34 -25 52 -43 83 -83 -9
-184 -168 -184 -148 0 -243 92 -179 174 11 14 33 33 49 41 l27 14 -13 51 c-16
63 -6 100 30 100 13 0 29 -7 36 -15z"/>
<path d="M224 296 c-8 -21 -1 -49 13 -53 15 -5 35 31 27 51 -8 20 -33 21 -40
2z"/>
<path d="M376 294 c-7 -17 10 -54 24 -54 12 0 24 46 15 59 -9 16 -32 13 -39
-5z"/>
</g>
</svg>
